<svg xmlns="http://www.w3.org/2000/svg" width="712.913" height="326.023" viewBox="0 0 18862 8626" shape-rendering="geometricPrecision" text-rendering="geometricPrecision" image-rendering="optimizeQuality" fill-rule="evenodd" clip-rule="evenodd"><defs><style>.fil1{fill:#fefefe}.fil0{fill:#e6e7e8}.fil2{fill:#ed3237}.fil4{fill:#0098da}.fil3{fill:#006cb5}</style></defs><g id="Camada_x0020_1"><path class="fil0" d="M8232 6211c21 133 19 271 7 405l-156 1744c-6 135-110 219-243 211-169 0-362-5-527-44-42-9-82-22-121-37-21-9-43-19-65-25-33-10-70-4-103 2-110 21-228 61-334 95-137 44-279 64-422 64-292 0-574-69-789-277-16-16-33-33-48-50-346 158-952 378-1265 119-184-151-198-412-181-632l74-804c11-129 17-313-58-425-72-107-204-136-325-136-140 0-266 44-362 149-99 110-139 259-151 404l-127 1462c-7 82-77 139-158 137h-758c-91 2-162-58-153-152l125-1440c11-128 17-312-58-424-72-107-203-136-325-136-140 0-266 44-361 149-100 110-139 259-152 404l-127 1461c-6 84-67 137-149 138H143c-81-1-149-66-143-150v-1l233-2681v-2c14-111 96-166 201-166h2c364 9 578 75 857 318l51 45 49-46c126-116 271-208 430-272 159-62 324-94 495-94 161 0 326 25 472 95 134 65 239 163 321 287l48 72 65-58c142-127 305-227 483-295 178-67 365-101 555-101 258 0 538 50 720 249s210 483 187 739c-36 396-71 792-107 1188 0 5-1 35 5 40 15 12 67 4 85 1 22-5 52-13 79-24 1-72 9-142 25-215 11-45 24-89 39-132 68-191 190-344 351-466 277-208 613-280 955-280 86 0 172 11 257 30h1c131 32 242 83 355 154l23-214c13-146-33-273-167-345-149-80-414-86-582-86-151 0-301 4-451 13-58 3-115 7-172 11h-2c-109 6-200-91-168-203l63-216c25-95 97-137 191-144 147-11 294-26 441-34 153-10 305-15 458-15 327 0 903 20 1167 220 81 62 136 145 171 238 10-112 19-223 29-334v-1c6-91 60-145 152-145h429c23-260 46-521 70-781v-5l1-5c21-100 75-174 188-168 245 0 491 1 736 1 50 0 99 12 132 52 33 41 35 91 33 140l-1 2v2c-23 254-47 508-70 762h549c46 1 90 10 120 48 29 38 26 81 19 126-11 115-21 231-31 346-8 94-53 156-154 158h-563c-41 355-81 711-122 1066-20 167-6 400 153 498 99 61 218 46 321 7l152-80c-70-191-87-397-69-599 20-223 85-434 199-628v-1l22-36c110-175 254-325 415-452 402-318 865-461 1375-461 350 0 691 75 986 270 177 118 320 266 424 452l42-482 5-12c52-126 149-185 284-186h597c61 3 124 16 166 64 39 43 46 99 36 155l-122 1364c-11 129-15 308 60 420 73 108 200 138 323 138 142 0 275-38 375-142 102-109 141-264 154-409l124-1377v-2c13-111 83-205 203-211h719c55 6 105 28 137 75 32 48 33 105 28 160l-164 1883c146 51 287 85 442 85 96 0 193-17 275-69 76-48 126-117 134-207 14-156-198-337-307-426-37-30-75-61-113-91l-2-1-1-1c-84-73-157-160-203-262-43-94-57-194-48-297 25-284 172-490 412-638 307-189 697-241 1052-241 88 0 175 5 263 12 45 4 91 8 136 14 127 17 188 104 172 229l-35 323c-4 53-25 102-69 133-53 38-117 38-179 33-68-7-137-10-206-10-89 0-183 14-262 59-72 43-122 106-130 192-5 57 15 110 44 158 46 69 113 131 174 186 143 126 326 296 411 466 62 125 82 260 69 398-24 268-147 471-372 618-275 179-631 227-953 227-173 0-361-28-530-62s-358-83-515-155c-216-58-433-154-656-169-94-7-177 25-252 79l-3 3-3 2c-120 108-256 190-407 245-162 58-334 82-506 82-259 0-550-48-735-246-183-195-210-478-187-732l96-1078c-26 29-57 51-92 68l-1963 1095c507 206 951 207 1462-83 64-36 145-20 202 21 66 48 100 125 87 206-7 38-13 77-16 117-4 42-7 84-11 126v2l-1 2c-37 254-352 370-570 420-254 60-516 88-777 88-460 0-926-96-1284-401-364 191-750 349-1168 349-244 9-535-15-717-196-208-206-213-552-189-824l118-1323h-434l-7-2c-21-3-43-8-62-18zm3040 1016l1253-714 5-2c103-45 111-100 17-164-318-220-708-120-1001 92-272 196-342 473-274 788zm-4223 627c92-73 155-167 166-287 10-116-34-216-119-295-90-82-199-120-320-120-123 0-233 39-329 115-93 73-155 168-166 287-10 117 29 218 116 297 89 82 200 115 320 115 122 0 234-37 332-112z"/><path class="fil0" d="M8265 6126l5 5c5 5 27 9 39 11h523l-127 1420c-21 240-22 570 163 753 163 161 436 179 652 170h3c405 0 781-157 1134-342l46-24 39 34c342 295 792 385 1233 385 254 0 509-27 757-86 199-46 473-148 503-347 14-134 6-116 27-248 17-106-100-169-158-136-581 330-1092 305-1703 15l2120-1183 3-1c32-16 61-37 80-68l41-66-29-80c-3-9-6-17-11-25-97-175-230-313-397-424-280-186-604-255-937-255-491 0-933 136-1320 441-154 122-291 264-395 430l-21 35c-108 182-168 380-187 591-17 193-2 387 68 569l24 64-227 118-4 2c-130 50-276 62-399-14-193-119-220-379-195-583l123-1077 8-68h641c52-1 63-26 67-76 10-116 20-232 31-348v-6c10-56 6-69-53-71h-644l8-83c24-259 47-517 71-776 4-66-3-99-76-99-245 0-491 0-736-1h-4c-66-3-85 40-97 98-24 264-47 528-71 792l-6 69h-510c-44 1-61 17-64 62v2c-11 129-22 257-33 385v2l-5 34zm5510 79l-129 1444c-20 228-1 490 163 665 167 178 439 217 671 217 162 0 324-21 476-76 141-51 267-127 378-227l6-6 7-5c92-67 195-105 310-97 234 17 449 113 674 173l6 2 6 2c254 117 729 210 1009 210 304 0 645-44 905-213 202-132 311-311 332-552 11-122-5-240-60-351-78-155-260-324-391-439-66-60-138-128-188-203l-1-1-1-1c-40-64-64-136-57-213 10-115 76-203 174-261 93-53 201-70 306-70 72 0 143 3 214 9 76 7 146 5 152-85l35-325c11-78-18-121-96-131-44-6-88-10-132-14-85-7-170-11-255-11-337 0-714 47-1006 228-216 133-347 314-370 570-8 88 4 172 41 253 40 90 106 166 180 231 38 30 76 61 114 91 139 115 357 305 339 502-10 118-76 212-174 274-97 62-210 84-323 84-170 0-321-37-480-94l-56-19 170-1951c6-73 1-131-86-140h-706c-72 4-111 62-120 134l-122 1376c-15 166-62 338-179 462-116 122-273 170-439 170-154 0-305-44-396-178-89-131-89-324-75-477l122-1368 1-3c16-88-39-112-119-116h-592c-102 1-165 40-203 131l-35 399zm-8694 299c21-229 0-493-164-671-163-179-424-221-655-221-180 0-355 32-523 96-169 64-322 158-456 278l-141 127-105-158c-73-111-166-198-285-256-134-65-287-87-434-87-160 0-314 30-462 89-150 60-284 145-403 254l-108 100-110-97c-272-237-470-288-801-297-49 0-104 16-113 89L89 8429c-3 33 23 55 56 56h773c36-1 60-18 63-57l127-1461c14-165 61-331 174-457 112-123 262-178 427-178 153 0 308 42 399 176 88 132 85 328 72 481l-125 1440c-3 32 15 57 64 56h760c33 1 65-19 69-57l126-1461c15-165 62-331 175-457 112-123 262-178 427-178 152 0 308 42 398 176 89 132 87 329 73 482l-73 804c-16 187-9 426 148 556 212 175 655 116 1235-161 24 34 52 66 84 97 197 191 459 252 727 252 133 0 267-19 394-60 755-243 228 4 1180 4 119 9 151-74 153-128l156-1746c12-134 14-276-11-409l-8-46-12-41c-29-96-77-185-158-246-244-184-814-203-1114-203-151 0-302 6-453 15-146 8-293 23-439 34-58 4-99 23-113 79l-63 218c-17 59 37 92 78 90 58-5 116-8 174-12 152-9 304-12 456-12 186 0 458 8 624 96 165 89 229 250 213 432l-26 237c-9 74-59 82-117 53-111-72-215-122-344-153-78-18-157-28-237-28-322 0-641 66-902 263-147 111-258 250-321 424-14 41-26 81-35 123-19 84-27 162-23 248v2c-66 42-367 152-346-80 36-396 71-792 107-1188zm1636 1551c-142 0-274-42-380-139-107-97-157-226-144-370s87-261 199-349 241-133 384-133 273 45 380 143c105 97 160 224 147 368s-88 261-200 349c-114 87-244 131-386 131zm5848-1463l-1352 771-23-100c-82-354-6-672 304-896 324-234 752-335 1103-93 153 105 135 245-32 318z"/><path class="fil1" d="M8265 6126l5 5c5 5 27 9 39 11h523l-127 1420c-21 240-22 570 163 753 163 161 436 179 652 170h3c405 0 781-157 1134-342l46-24 39 34c342 295 792 385 1233 385 254 0 509-27 757-86 199-46 473-148 503-347 14-134 6-116 27-248 17-106-100-169-158-136-581 330-1092 305-1703 15l2120-1183 3-1c32-16 61-37 80-68l41-66-29-80c-3-9-6-17-11-25-97-175-230-313-397-424-280-186-604-255-937-255-491 0-933 136-1320 441-154 122-291 264-395 430l-21 35c-108 182-168 380-187 591-17 193-2 387 68 569l24 64-227 118-4 2c-130 50-276 62-399-14-193-119-220-379-195-583l123-1077 8-68h641c52-1 63-26 67-76 10-116 20-232 31-348v-6c10-56 6-69-53-71h-644l8-83c24-259 47-517 71-776 4-66-3-99-76-99-245 0-491 0-736-1h-4c-66-3-85 40-97 98-24 264-47 528-71 792l-6 69h-510c-44 1-61 17-64 62v2c-11 129-22 257-33 385v2l-5 34zm5510 79l-129 1444c-20 228-1 490 163 665 167 178 439 217 671 217 162 0 324-21 476-76 141-51 267-127 378-227l6-6 7-5c92-67 195-105 310-97 234 17 449 113 674 173l6 2 6 2c254 117 729 210 1009 210 304 0 645-44 905-213 202-132 311-311 332-552 11-122-5-240-60-351-78-155-260-324-391-439-66-60-138-128-188-203l-1-1-1-1c-40-64-64-136-57-213 10-115 76-203 174-261 93-53 201-70 306-70 72 0 143 3 214 9 76 7 146 5 152-85l35-325c11-78-18-121-96-131-44-6-88-10-132-14-85-7-170-11-255-11-337 0-714 47-1006 228-216 133-347 314-370 570-8 88 4 172 41 253 40 90 106 166 180 231 38 30 76 61 114 91 139 115 357 305 339 502-10 118-76 212-174 274-97 62-210 84-323 84-170 0-321-37-480-94l-56-19 170-1951c6-73 1-131-86-140h-706c-72 4-111 62-120 134l-122 1376c-15 166-62 338-179 462-116 122-273 170-439 170-154 0-305-44-396-178-89-131-89-324-75-477l122-1368 1-3c16-88-39-112-119-116h-592c-102 1-165 40-203 131l-35 399zm-8694 299c21-229 0-493-164-671-163-179-424-221-655-221-180 0-355 32-523 96-169 64-322 158-456 278l-141 127-105-158c-73-111-166-198-285-256-134-65-287-87-434-87-160 0-314 30-462 89-150 60-284 145-403 254l-108 100-110-97c-272-237-470-288-801-297-49 0-104 16-113 89L89 8429c-3 33 23 55 56 56h773c36-1 60-18 63-57l127-1461c14-165 61-331 174-457 112-123 262-178 427-178 153 0 308 42 399 176 88 132 85 328 72 481l-125 1440c-3 32 15 57 64 56h760c33 1 65-19 69-57l126-1461c15-165 62-331 175-457 112-123 262-178 427-178 152 0 308 42 398 176 89 132 87 329 73 482l-73 804c-16 187-9 426 148 556 212 175 655 116 1235-161 24 34 52 66 84 97 197 191 459 252 727 252 133 0 267-19 394-60 755-243 228 4 1180 4 119 9 151-74 153-128l156-1746c12-134 14-276-11-409l-8-46-12-41c-29-96-77-185-158-246-244-184-814-203-1114-203-151 0-302 6-453 15-146 8-293 23-439 34-58 4-99 23-113 79l-63 218c-17 59 37 92 78 90 58-5 116-8 174-12 152-9 304-12 456-12 186 0 458 8 624 96 165 89 229 250 213 432l-26 237c-9 74-59 82-117 53-111-72-215-122-344-153-78-18-157-28-237-28-322 0-641 66-902 263-147 111-258 250-321 424-14 41-26 81-35 123-19 84-27 162-23 248v2c-66 42-367 152-346-80 36-396 71-792 107-1188zm1636 1551c-142 0-274-42-380-139-107-97-157-226-144-370s87-261 199-349 241-133 384-133 273 45 380 143c105 97 160 224 147 368s-88 261-200 349c-114 87-244 131-386 131zm5848-1463l-1352 771-23-100c-82-354-6-672 304-896 324-234 752-335 1103-93 153 105 135 245-32 318z"/><path class="fil2" d="M10280 4255l1682-1428 32-34 27-29 27-29 25-31 25-30 24-32 24-32 23-33 21-33 22-34 20-34 20-35 18-35 18-36 17-37 16-37 16-37 14-38 14-38 12-39 12-39 11-39 9-40 9-40 8-41 7-40 5-41 5-42 4-42 3-42 1-42 1-43-1-42-1-42-3-42-4-42-5-42-5-41-7-41-8-40-9-40-9-40-11-39-12-40-12-38-14-38-14-38-16-38-16-36-17-37-18-36-18-35-20-35-20-34-21-34-22-33-23-33-24-32-24-32-25-31-25-30-27-30-27-28-27-29-29-28-29-27-29-26-31-26-31-25-31-24-32-23-33-23-33-22-34-21-34-20-35-20-36-18-35-18-37-17-37-17-37-15-38-14-38-14-39-12-39-12-39-11-40-9-40-9-41-8-40-7-42-6-41-4-42-4-42-3-42-1-44-1-74 2-74 5-73 8-72 11-72 15-70 18-69 20-68 24-66 26-65 29-63 32-62 34-60 37-59 39-56 41-55 44-53 46-50 49-49 50-47 52c-128 138-207 117-309 0l-46-52-49-50-51-49-52-46-55-44-57-41-58-39-60-37-62-34-63-32-65-29-67-26-67-24-69-20-71-18-71-15-72-11-73-8-75-5-75-2-84 2-84 7-83 10-81 15-80 18-79 23-76 26-76 29-73 34-71 36-69 40-67 43-65 46-63 49-60 52-57 55-55 57-52 60-49 63-46 65-43 67-40 69-36 71-34 73-29 76-26 76-23 79-18 80-15 81-11 83-6 84-2 83 1 44 1 42 3 42 4 42 4 42 6 41 7 40 8 41 8 40 10 40 11 39 12 39 12 39 14 38 14 38 15 37 17 37 17 37 17 36 19 35 20 35 20 34 21 34 22 33 23 33 23 32 24 32 25 30 26 31 26 29 27 29 33 34 1156 993c112 60 197 94 350-16l276-247c72-93 88-194-21-315L7385 2213l-13-14-13-14-13-15-12-16-12-15-12-16-11-16-11-17-10-17-10-17-10-17-9-17-9-18-8-18-8-18-8-18-7-18-6-19-6-19-6-19-5-19-5-20-4-19-4-20-4-20-2-20-3-20-2-21-1-21-1-20v-18l1-46 3-41 6-40 7-40 9-39 11-38 12-38 15-36 16-36 18-35 20-34 21-34 23-32 24-31 26-29 27-29 29-27 29-26 31-24 32-23 34-21 34-20 35-18 35-16 37-15 38-12 38-11 39-9 40-7 40-6 41-3 43-1 37 1 36 2 36 5c378 61 643 255 843 476 208 208 476 486 917 31 211-231 449-413 776-495l34-7 36-5 36-5 36-2 40-1h18l21 1 21 1 21 2 20 3 20 2 20 4 20 4 19 4 20 5 19 5 19 6 19 6 18 6 19 7 18 8 18 8 18 8 18 9 17 9 17 10 17 10 17 10 16 11 16 11 16 12 16 12 15 12 15 13 15 13 15 13 14 14 13 14 14 15 13 14 13 15 12 16 12 15 12 16 11 16 11 17 10 16 10 17 10 18 9 17 9 18 8 18 8 18 7 18 7 18 7 19 6 19 6 19 5 19 5 20 4 19 4 20 3 20 3 20 2 20 2 21 2 20v21l1 21-1 22v20l-2 21-2 21-2 20-3 20-3 20-4 20-4 19-5 20-5 19-6 19-6 19-7 19-7 18-7 18-8 18-8 18-9 18-9 17-10 17-10 17-10 17-11 17-11 16-12 16-12 15-12 16-13 15-13 14-13 14-2161 1880c-215 166-60 386 70 389l549-2c213 9 259-81 435-225z"/><path class="fil3" d="M8232 6211c21 133 19 271 7 405l-156 1744c-6 135-110 219-243 211-169 0-362-5-527-44-42-9-82-22-121-37-21-9-43-19-65-25-33-10-70-4-103 2-110 21-228 61-334 95-137 44-279 64-422 64-292 0-574-69-789-277-16-16-33-33-48-50-346 158-952 378-1265 119-184-151-198-412-181-632l74-804c11-129 17-313-58-425-72-107-204-136-325-136-140 0-266 44-362 149-99 110-139 259-151 404l-127 1462c-7 82-77 139-158 137h-758c-91 2-162-58-153-152l125-1440c11-128 17-312-58-424-72-107-203-136-325-136-140 0-266 44-361 149-100 110-139 259-152 404l-127 1461c-6 84-67 137-149 138H143c-81-1-149-66-143-150v-1l233-2681v-2c14-111 96-166 201-166h2c364 9 578 75 857 318l51 45 49-46c126-116 271-208 430-272 159-62 324-94 495-94 161 0 326 25 472 95 134 65 239 163 321 287l48 72 65-58c142-127 305-227 483-295 178-67 365-101 555-101 258 0 538 50 720 249s210 483 187 739c-36 396-71 792-107 1188 0 5-1 35 5 40 15 12 67 4 85 1 22-5 52-13 79-24 1-72 9-142 25-215 11-45 24-89 39-132 68-191 190-344 351-466 277-208 613-280 955-280 86 0 172 11 257 30h1c131 32 242 83 355 154l23-214c13-146-33-273-167-345-149-80-414-86-582-86-151 0-301 4-451 13-58 3-115 7-172 11h-2c-109 6-200-91-168-203l63-216c25-95 97-137 191-144 147-11 294-26 441-34 153-10 305-15 458-15 327 0 903 20 1167 220 81 62 136 145 171 238 10-112 19-223 29-334v-1c6-91 60-145 152-145h429c23-260 46-521 70-781v-5l1-5c21-100 75-174 188-168 245 0 491 1 736 1 50 0 99 12 132 52 33 41 35 91 33 140l-1 2v2c-23 254-47 508-70 762h549c46 1 90 10 120 48 29 38 26 81 19 126-11 115-21 231-31 346-8 94-53 156-154 158h-563c-41 355-81 711-122 1066-20 167-6 400 153 498 99 61 218 46 321 7l152-80c-70-191-87-397-69-599 20-223 85-434 199-628v-1l22-36c110-175 254-325 415-452 402-318 865-461 1375-461 350 0 691 75 986 270 177 118 320 266 424 452l42-482 5-12c52-126 149-185 284-186h597c61 3 124 16 166 64 39 43 46 99 36 155l-122 1364c-11 129-15 308 60 420 73 108 200 138 323 138 142 0 275-38 375-142 102-109 141-264 154-409l124-1377v-2c13-111 83-205 203-211h719c55 6 105 28 137 75 32 48 33 105 28 160l-164 1883c146 51 287 85 442 85 96 0 193-17 275-69 76-48 126-117 134-207 14-156-198-337-307-426-37-30-75-61-113-91l-2-1-1-1c-84-73-157-160-203-262-43-94-57-194-48-297 25-284 172-490 412-638 307-189 697-241 1052-241 88 0 175 5 263 12 45 4 91 8 136 14 127 17 188 104 172 229l-35 323c-4 53-25 102-69 133-53 38-117 38-179 33-68-7-137-10-206-10-89 0-183 14-262 59-72 43-122 106-130 192-5 57 15 110 44 158 46 69 113 131 174 186 143 126 326 296 411 466 62 125 82 260 69 398-24 268-147 471-372 618-275 179-631 227-953 227-173 0-361-28-530-62s-358-83-515-155c-216-58-433-154-656-169-94-7-177 25-252 79l-3 3-3 2c-120 108-256 190-407 245-162 58-334 82-506 82-259 0-550-48-735-246-183-195-210-478-187-732l96-1078c-26 29-57 51-92 68l-1963 1095c507 206 951 207 1462-83 64-36 145-20 202 21 66 48 100 125 87 206-7 38-13 77-16 117-4 42-7 84-11 126v2l-1 2c-37 254-352 370-570 420-254 60-516 88-777 88-460 0-926-96-1284-401-364 191-750 349-1168 349-244 9-535-15-717-196-208-206-213-552-189-824l118-1323h-434l-7-2c-21-3-43-8-62-18zm3040 1016l1253-714 5-2c103-45 111-100 17-164-318-220-708-120-1001 92-272 196-342 473-274 788zm-4223 627c92-73 155-167 166-287 10-116-34-216-119-295-90-82-199-120-320-120-123 0-233 39-329 115-93 73-155 168-166 287-10 117 29 218 116 297 89 82 200 115 320 115 122 0 234-37 332-112z"/><path class="fil4" d="M8265 6126l5 5c5 5 27 9 39 11h523l-127 1420c-21 240-22 570 163 753 163 161 436 179 652 170h3c405 0 781-157 1134-342l46-24 39 34c342 295 792 385 1233 385 254 0 509-27 757-86 199-46 473-148 503-347 14-134 6-116 27-248 17-106-100-169-158-136-581 330-1092 305-1703 15l2120-1183 3-1c32-16 61-37 80-68l41-66-29-80c-3-9-6-17-11-25-97-175-230-313-397-424-280-186-604-255-937-255-491 0-933 136-1320 441-154 122-291 264-395 430l-21 35c-108 182-168 380-187 591-17 193-2 387 68 569l24 64-227 118-4 2c-130 50-276 62-399-14-193-119-220-379-195-583l123-1077 8-68h641c52-1 63-26 67-76 10-116 20-232 31-348v-6c10-56 6-69-53-71h-644l8-83c24-259 47-517 71-776 4-66-3-99-76-99-245 0-491 0-736-1h-4c-66-3-85 40-97 98-24 264-47 528-71 792l-6 69h-510c-44 1-61 17-64 62v2c-11 129-22 257-33 385v2l-5 34zm5510 79l-129 1444c-20 228-1 490 163 665 167 178 439 217 671 217 162 0 324-21 476-76 141-51 267-127 378-227l6-6 7-5c92-67 195-105 310-97 234 17 449 113 674 173l6 2 6 2c254 117 729 210 1009 210 304 0 645-44 905-213 202-132 311-311 332-552 11-122-5-240-60-351-78-155-260-324-391-439-66-60-138-128-188-203l-1-1-1-1c-40-64-64-136-57-213 10-115 76-203 174-261 93-53 201-70 306-70 72 0 143 3 214 9 76 7 146 5 152-85l35-325c11-78-18-121-96-131-44-6-88-10-132-14-85-7-170-11-255-11-337 0-714 47-1006 228-216 133-347 314-370 570-8 88 4 172 41 253 40 90 106 166 180 231 38 30 76 61 114 91 139 115 357 305 339 502-10 118-76 212-174 274-97 62-210 84-323 84-170 0-321-37-480-94l-56-19 170-1951c6-73 1-131-86-140h-706c-72 4-111 62-120 134l-122 1376c-15 166-62 338-179 462-116 122-273 170-439 170-154 0-305-44-396-178-89-131-89-324-75-477l122-1368 1-3c16-88-39-112-119-116h-592c-102 1-165 40-203 131l-35 399zm-8694 299c21-229 0-493-164-671-163-179-424-221-655-221-180 0-355 32-523 96-169 64-322 158-456 278l-141 127-105-158c-73-111-166-198-285-256-134-65-287-87-434-87-160 0-314 30-462 89-150 60-284 145-403 254l-108 100-110-97c-272-237-470-288-801-297-49 0-104 16-113 89L89 8429c-3 33 23 55 56 56h773c36-1 60-18 63-57l127-1461c14-165 61-331 174-457 112-123 262-178 427-178 153 0 308 42 399 176 88 132 85 328 72 481l-125 1440c-3 32 15 57 64 56h760c33 1 65-19 69-57l126-1461c15-165 62-331 175-457 112-123 262-178 427-178 152 0 308 42 398 176 89 132 87 329 73 482l-73 804c-16 187-9 426 148 556 212 175 655 116 1235-161 24 34 52 66 84 97 197 191 459 252 727 252 133 0 267-19 394-60 755-243 228 4 1180 4 119 9 151-74 153-128l156-1746c12-134 14-276-11-409l-8-46-12-41c-29-96-77-185-158-246-244-184-814-203-1114-203-151 0-302 6-453 15-146 8-293 23-439 34-58 4-99 23-113 79l-63 218c-17 59 37 92 78 90 58-5 116-8 174-12 152-9 304-12 456-12 186 0 458 8 624 96 165 89 229 250 213 432l-26 237c-9 74-59 82-117 53-111-72-215-122-344-153-78-18-157-28-237-28-322 0-641 66-902 263-147 111-258 250-321 424-14 41-26 81-35 123-19 84-27 162-23 248v2c-66 42-367 152-346-80 36-396 71-792 107-1188zm1636 1551c-142 0-274-42-380-139-107-97-157-226-144-370s87-261 199-349 241-133 384-133 273 45 380 143c105 97 160 224 147 368s-88 261-200 349c-114 87-244 131-386 131zm5848-1463l-1352 771-23-100c-82-354-6-672 304-896 324-234 752-335 1103-93 153 105 135 245-32 318z"/></g></svg>